<?xml version="1.0" standalone="no"?>
<!DOCTYPE svg PUBLIC "-//W3C//DTD SVG 20010904//EN"
 "http://www.w3.org/TR/2001/REC-SVG-20010904/DTD/svg10.dtd">
<svg version="1.0" xmlns="http://www.w3.org/2000/svg"
 width="748.000000pt" height="323.000000pt" viewBox="0 0 748.000000 323.000000"
 preserveAspectRatio="xMidYMid meet">
<metadata>
Created by potrace 1.16, written by Peter Selinger 2001-2019
</metadata>
<g transform="translate(0.000000,323.000000) scale(0.100000,-0.100000)"
fill="#ffffff" stroke="none">
<path d="M1395 2791 c-58 -15 -104 -43 -152 -94 -59 -62 -97 -125 -140 -232
-25 -61 -37 -79 -50 -78 -222 28 -323 21 -423 -29 -106 -54 -148 -139 -128
-265 11 -76 74 -201 143 -286 l56 -68 -36 -43 -36 -44 29 -20 28 -21 27 35
c16 19 32 34 37 34 6 0 42 -29 80 -65 39 -35 91 -79 116 -97 24 -17 46 -41 49
-52 2 -12 9 -57 15 -100 7 -44 18 -104 26 -134 8 -31 11 -59 6 -64 -13 -13
-189 -24 -264 -17 -129 14 -208 76 -208 165 0 31 -4 43 -17 47 -10 2 -26 8
-36 12 -15 6 -17 1 -17 -49 0 -103 46 -168 156 -218 44 -20 65 -23 194 -23 80
0 162 2 183 5 l38 5 28 -71 c134 -341 364 -436 550 -227 50 56 127 191 151
266 11 36 13 37 48 31 21 -4 42 -7 47 -8 6 0 10 15 10 34 0 32 -3 35 -32 38
-18 2 -33 9 -33 16 0 6 9 52 19 101 11 50 23 116 26 147 7 57 9 59 74 110 36
28 91 76 122 105 l57 54 57 -78 c68 -93 88 -130 110 -207 25 -84 14 -139 -36
-189 -34 -35 -38 -42 -31 -72 l7 -34 46 34 c69 50 93 105 87 206 -4 69 -10 91
-51 172 -25 50 -69 120 -97 155 l-51 62 43 50 c102 118 161 248 161 355 1 149
-89 232 -280 255 -60 8 -210 -1 -268 -16 -20 -5 -25 0 -36 30 -10 27 -17 35
-29 30 -8 -3 -23 -9 -33 -11 -17 -5 -17 -14 0 -59 2 -6 -23 -18 -57 -27 -34
-10 -102 -33 -151 -53 l-89 -35 -103 40 c-56 22 -123 45 -149 51 -27 7 -48 16
-48 20 0 19 62 153 92 201 70 108 132 152 218 153 42 1 61 6 78 22 l23 21 -28
11 c-41 16 -94 22 -128 13z m-357 -475 c4 -2 -2 -56 -14 -118 -12 -62 -25
-133 -29 -158 -5 -40 -12 -49 -63 -87 -31 -23 -85 -67 -120 -98 -62 -57 -63
-57 -84 -39 -27 25 -89 117 -122 182 -92 182 -26 311 171 330 66 7 244 -1 261
-12z m1138 -2 c59 -16 98 -44 119 -84 21 -41 19 -130 -6 -194 -22 -60 -103
-190 -137 -220 -22 -19 -22 -19 -89 40 -56 49 -159 134 -171 140 -1 1 -9 45
-17 98 -8 54 -21 123 -30 154 -8 31 -11 60 -6 65 11 11 170 24 236 19 28 -2
73 -10 101 -18z m-893 -66 c31 -11 57 -24 57 -27 0 -4 -33 -24 -72 -46 -40
-21 -100 -56 -133 -76 -32 -21 -61 -36 -63 -35 -4 5 28 184 39 213 8 22 9 22
61 7 29 -9 79 -25 111 -36z m506 -78 c11 -58 18 -106 16 -108 -2 -2 -16 5 -32
16 -15 11 -77 47 -136 80 -69 38 -104 63 -96 67 7 5 57 23 113 41 74 24 103
29 108 21 3 -7 15 -59 27 -117z m-244 -38 c50 -27 132 -75 182 -107 107 -70
103 -57 103 -280 0 -225 2 -217 -94 -280 -45 -29 -129 -79 -188 -110 l-108
-57 -107 57 c-60 31 -144 81 -189 110 -79 51 -81 54 -87 100 -9 59 -9 317 -1
365 5 32 16 42 97 95 108 70 266 155 287 155 8 0 56 -22 105 -48z m-565 -393
l0 -160 -27 19 c-16 11 -57 47 -93 80 -60 54 -64 61 -50 77 16 19 160 145 167
145 1 0 3 -72 3 -161z m1040 62 l65 -61 -51 -48 c-28 -26 -70 -63 -92 -81
l-42 -33 0 162 0 161 28 -19 c15 -11 56 -47 92 -81z m-875 -426 c28 -17 83
-49 123 -70 39 -22 72 -43 72 -47 0 -10 -214 -78 -222 -70 -6 7 -48 198 -48
222 0 6 5 8 13 4 6 -4 35 -22 62 -39z m665 38 c0 -5 -10 -56 -21 -115 -18 -88
-25 -108 -39 -108 -10 0 -53 12 -96 26 -144 48 -139 39 -48 88 43 23 104 59
134 78 57 38 70 43 70 31z m-280 -227 c47 -19 113 -43 147 -52 74 -20 74 -12
8 -151 -75 -157 -184 -248 -275 -228 -50 11 -116 63 -160 126 -37 52 -110 205
-110 228 0 5 28 16 63 25 34 10 98 32 142 51 44 18 85 34 90 34 6 1 49 -15 95
-33z"/>
<path d="M1362 1899 c-122 -62 -133 -231 -21 -306 150 -99 337 61 259 222 -44
91 -151 129 -238 84z"/>
<path d="M1610 2743 c-8 -3 -26 -15 -38 -27 -72 -64 -68 -155 8 -220 61 -51
168 -27 206 46 49 95 -17 209 -121 207 -22 0 -47 -3 -55 -6z"/>
<path d="M2863 2558 l-53 -10 0 -339 0 -339 65 0 65 0 0 102 0 102 36 -35 c19
-18 56 -64 81 -101 l47 -68 73 0 c40 0 73 4 73 8 0 16 -102 158 -147 204 l-46
47 79 86 c122 133 120 125 31 125 l-75 0 -73 -84 -74 -84 -3 199 c-2 150 -5
199 -15 198 -6 -1 -36 -6 -64 -11z"/>
<path d="M3945 2565 c-5 -2 -31 -6 -57 -10 l-48 -6 0 -287 c0 -253 2 -291 18
-321 24 -48 59 -70 119 -78 l52 -6 6 39 c4 22 9 46 11 55 3 12 -4 18 -25 22
-46 10 -51 40 -51 333 0 145 -3 264 -7 263 -5 0 -12 -2 -18 -4z"/>
<path d="M5673 2558 l-53 -10 0 -109 0 -109 -26 10 c-37 14 -119 12 -157 -4
-75 -32 -127 -126 -127 -229 0 -182 117 -270 327 -246 127 14 113 -30 113 365
0 269 -3 344 -12 343 -7 -1 -37 -6 -65 -11z m-79 -328 c26 -10 26 -10 26 -135
l0 -125 -50 0 c-95 0 -127 47 -122 178 4 69 76 109 146 82z"/>
<path d="M3413 2334 c-51 -19 -108 -80 -122 -131 -23 -82 -10 -176 32 -237 39
-55 158 -84 233 -56 26 10 26 10 20 -22 -3 -18 -18 -44 -33 -57 -25 -21 -33
-23 -102 -18 -42 3 -86 8 -97 12 -19 6 -22 2 -28 -32 -4 -21 -9 -45 -12 -54
-3 -13 6 -19 40 -28 57 -14 179 -14 231 0 51 14 110 73 124 124 6 24 11 132
11 266 0 265 17 238 -150 244 -79 4 -115 1 -147 -11z m151 -90 c13 -5 16 -25
16 -114 0 -100 -2 -109 -20 -115 -27 -9 -71 -9 -96 -1 -45 14 -63 106 -34 176
19 45 86 72 134 54z"/>
<path d="M4465 2331 c-91 -42 -138 -121 -137 -232 1 -157 90 -243 252 -242 41
0 87 5 101 11 25 10 26 13 18 54 -4 24 -8 46 -9 50 0 3 -35 4 -78 1 -76 -5
-80 -5 -112 24 -28 25 -34 38 -38 84 -9 113 43 167 150 155 64 -6 64 -6 81 66
6 23 3 27 -25 37 -49 17 -157 13 -203 -8z"/>
<path d="M4900 2337 c-97 -53 -131 -105 -138 -213 -10 -162 79 -266 228 -267
142 -1 230 96 230 252 0 88 -35 161 -99 206 -37 26 -53 30 -119 33 -51 2 -85
-2 -102 -11z m139 -113 c90 -64 53 -254 -50 -254 -70 0 -115 93 -90 188 20 71
87 103 140 66z"/>
<path d="M5978 2322 c-84 -48 -124 -131 -116 -241 9 -127 73 -199 193 -220 47
-8 83 -9 131 -1 91 15 92 15 81 78 -7 45 -12 52 -25 46 -10 -4 -51 -9 -92 -11
-66 -4 -79 -2 -110 19 -19 13 -36 34 -38 46 -3 22 -3 22 147 22 l151 0 0 58
c0 150 -75 232 -212 232 -50 0 -73 -6 -110 -28z"/>
<path d="M6475 2335 c-27 -8 -53 -14 -57 -15 -5 0 -8 -101 -8 -225 l0 -225 70
0 70 0 2 183 3 182 72 -2 72 -2 10 51 c7 28 9 53 6 57 -13 13 -192 10 -240 -4z"/>
<path d="M6363 1728 c-54 -26 -50 -114 6 -138 93 -38 159 90 70 135 -32 17
-46 18 -76 3z"/>
<path d="M6642 1648 l-54 -10 4 -236 c3 -213 5 -241 23 -277 26 -52 71 -81
137 -89 65 -8 154 12 151 34 -1 8 -4 31 -7 50 l-6 36 -64 -4 c-88 -6 -96 7
-96 150 l0 108 80 0 80 0 0 55 0 55 -80 0 -80 0 0 70 c0 79 6 75 -88 58z"/>
<path d="M519 1571 c-41 -41 -40 -91 1 -133 27 -26 36 -30 68 -25 78 13 110
106 56 161 -37 37 -86 35 -125 -3z"/>
<path d="M2842 1517 c-118 -43 -181 -188 -141 -330 31 -113 168 -177 312 -147
l58 12 -7 46 c-4 26 -8 49 -11 52 -2 2 -39 3 -81 1 -66 -2 -81 0 -104 19 -54
42 -60 152 -11 210 29 35 78 47 138 33 42 -10 43 -9 49 17 3 15 8 39 11 53 6
21 2 26 -26 36 -41 14 -144 13 -187 -2z"/>
<path d="M3260 1514 c-176 -76 -187 -368 -18 -455 63 -33 158 -32 223 2 95 48
141 171 110 292 -29 114 -107 177 -219 177 -34 -1 -77 -8 -96 -16z m134 -105
c51 -24 73 -130 42 -204 -27 -64 -106 -77 -150 -24 -22 26 -26 40 -26 95 0
117 53 170 134 133z"/>
<path d="M3750 1517 l-55 -12 0 -230 0 -230 65 0 65 0 5 185 5 185 26 3 c14 2
37 -2 51 -7 38 -14 48 -61 48 -228 l0 -143 66 0 65 0 -2 182 -2 183 32 9 c40
12 78 -5 91 -40 6 -14 10 -95 10 -180 l0 -154 65 0 65 0 0 178 c0 200 -10 239
-71 283 -29 20 -46 24 -109 24 -53 0 -85 -6 -108 -18 -32 -18 -34 -18 -76 2
-48 24 -144 27 -236 8z"/>
<path d="M4538 1518 l-58 -10 0 -234 0 -234 65 0 65 0 2 188 3 187 36 3 c24 2
43 -3 60 -17 23 -19 24 -23 27 -190 l3 -171 65 0 64 0 0 180 0 180 26 10 c36
14 49 13 75 -9 23 -18 24 -26 29 -188 l5 -168 68 -3 67 -3 0 150 c0 83 -5 173
-11 201 -26 121 -137 171 -270 121 -48 -19 -53 -19 -76 -4 -31 20 -162 26
-245 11z"/>
<path d="M5858 1518 l-58 -10 0 -234 0 -234 65 0 65 0 2 188 3 187 34 3 c40 4
87 -13 97 -36 4 -10 9 -90 12 -179 l4 -163 64 0 64 0 0 158 c0 230 -25 293
-128 322 -45 12 -146 11 -224 -2z"/>
<path d="M5262 1343 c3 -157 5 -183 24 -218 39 -76 126 -103 269 -85 128 16
115 -12 115 251 l0 229 -65 0 -65 0 0 -185 0 -185 -53 0 c-87 0 -91 9 -95 206
l-4 164 -65 0 -65 0 4 -177z"/>
<path d="M6332 1283 l3 -238 68 -3 67 -3 0 241 0 240 -70 0 -70 0 2 -237z"/>
<path d="M6966 1493 c13 -54 87 -249 129 -340 l43 -91 -19 -31 c-21 -34 -53
-46 -108 -38 l-38 5 -10 -52 c-6 -28 -9 -53 -7 -56 8 -7 132 -13 159 -6 69 17
123 99 208 316 38 99 107 300 107 315 0 3 -31 5 -69 5 l-68 0 -7 -31 c-3 -18
-23 -88 -43 -157 -30 -102 -39 -122 -48 -109 -6 9 -31 79 -56 157 l-44 140
-67 0 -68 0 6 -27z"/>
<path d="M2023 1216 c-37 -17 -62 -51 -69 -97 -8 -47 29 -99 82 -118 37 -13
44 -12 80 5 26 13 45 32 58 58 17 36 18 43 5 79 -24 68 -93 101 -156 73z"/>
</g>
</svg>
